<svg xmlns="http://www.w3.org/2000/svg" version="1.1" xmlns:xlink="http://www.w3.org/1999/xlink" xmlns:svgjs="http://svgjs.dev/svgjs" width="1440" height="560" preserveAspectRatio="none" viewBox="0 0 1440 560"><g mask="url(&quot;#SvgjsMask1004&quot;)" fill="none"><path d="M749.86 614.65C865.67 610.18 940.8 430.78 1171.65 422.33 1402.51 413.88 1478.39 241.53 1593.45 237.53" stroke="rgba(64, 162, 216, 1)" stroke-width="2"></path><path d="M204.24 608.91C378.67 601.98 519.01 316.8 838.34 316.53 1157.67 316.26 1310.1 455.7 1472.44 456.53" stroke="rgba(64, 162, 216, 1)" stroke-width="2"></path><path d="M819.43 667.86C979.12 602.93 1009.34 115.53 1225.85 110.82 1442.36 106.11 1512.44 357.88 1632.27 368.42" stroke="rgba(64, 162, 216, 1)" stroke-width="2"></path><path d="M541.97 632.83C670.24 632.65 781.58 565.04 1049.91 560.3 1318.25 555.56 1413.78 294.49 1557.86 285.9" stroke="rgba(64, 162, 216, 1)" stroke-width="2"></path><path d="M613.49 606.09C750.03 559.45 700.71 158.42 977.02 157.82 1253.34 157.22 1510.35 422.36 1704.09 426.62" stroke="rgba(64, 162, 216, 1)" stroke-width="2"></path></g><defs><mask id="SvgjsMask1004"><rect width="1440" height="560" fill="#ffffff"></rect></mask></defs></svg>