<svg xmlns="http://www.w3.org/2000/svg" version="1.1" xmlns:xlink="http://www.w3.org/1999/xlink" xmlns:svgjs="http://svgjs.dev/svgjs" width="1440" height="560" preserveAspectRatio="none" viewBox="0 0 1440 560"><g mask="url(&quot;#SvgjsMask1001&quot;)" fill="none"><rect width="1440" height="560" x="0" y="0" fill="rgba(11, 96, 176, 1)"></rect><path d="M0,493.407C89.728,477.217,157.542,413.124,238.31,370.818C328.756,323.442,451.239,317.692,503.228,229.816C555.503,141.457,516.068,29.514,500.247,-71.925C484.608,-172.197,467.822,-272.194,411.742,-356.776C350.539,-449.085,271.339,-532.458,168.179,-572.764C60.409,-614.871,-70.505,-640.842,-171.693,-584.732C-271.684,-529.286,-269.971,-384.699,-337.44,-292.393C-396.957,-210.967,-532.962,-178.387,-542.121,-77.945C-551.365,23.437,-421.07,80.388,-379.922,173.505C-337.976,268.427,-380.21,401.252,-300.827,468.095C-222.26,534.25,-101.078,511.645,0,493.407" fill="#094d8d"></path><path d="M1440 1051.759C1531.669 1072.0700000000002 1622.298 1017.121 1703.6680000000001 970.275 1788.2930000000001 921.5550000000001 1888.618 871.164 1916.325 777.53 1943.854 684.498 1871.226 594.745 1842.182 502.175 1818.275 425.976 1817.466 338.30600000000004 1760.847 281.985 1705.405 226.83499999999998 1620.616 221.55200000000002 1544.056 205.61900000000003 1473.351 190.90499999999997 1402.581 176.69799999999998 1332.173 192.77499999999998 1258.873 209.512 1196.801 251.452 1138.02 298.333 1068.024 354.159 969.168 401.877 958.529 490.775 947.861 579.913 1033.495 649.248 1087.435 721.011 1131.046 779.033 1189.127 818.335 1242.063 867.996 1309.08 930.866 1350.285 1031.8809999999999 1440 1051.759" fill="#0d73d3"></path></g><defs><mask id="SvgjsMask1001"><rect width="1440" height="560" fill="#ffffff"></rect></mask></defs></svg>